# xmcd
# Track frame offsets:
# 150
# 12200
# 23437
# 33650
# 46335
# 58963
# 72445
# 86187
# 99740
# 112847
# 127203
# 140987
# 156359
# 169450
# 182198
# 194768
# 209117
# 223052
# 234575
# 246234
# 259281
# 271695
# 284483
#
# Disc length: 3976 seconds
# Revision: 0
# Processed by: cddbd v1.5.1PL0 Copyright (c) Steve Scherf et al.
# Submitted via: VisiTrax 2.9.10.228 - For more info visit www.synapsa.com
#
DISCID=790f8617
DTITLE=Little Walter - A Proper Introduction To Little Walter
DYEAR=2004
DGENRE=
TTITLE0=Ora Nelle Blues
TTITLE1=I Just Keep Loving Her
TTITLE2=Blue Baby
TTITLE3=Chance To Love
TTITLE4=Juke
TTITLE5=Can't Hold Out Much Longer
TTITLE6=Blue Midnight
TTITLE7=Boogie
TTITLE8=Mean Old  World
TTITLE9=Sad Hours
TTITLE10=Don't Have To Hurt No More
TTITLE11=Crazy Legs
TTITLE12=Tonight With A Fool
TTITLE13=Off The Wall
TTITLE14=Tell Me Mama
TTITLE15=Quarter To Twelve
TTITLE16=Blues With A Feeling
TTITLE17=Last Boogie
TTITLE18=Too Late
TTITLE19=Fast Boogie
TTITLE20=Lights Out
TTITLE21=Fast Large One
TTITLE22=You're So Fine
EXTD=Proper Records Ltd
EXTT0=
EXTT1=
EXTT2=
EXTT3=
EXTT4=
EXTT5=
EXTT6=
EXTT7=
EXTT8=
EXTT9=
EXTT10=
EXTT11=
EXTT12=
EXTT13=
EXTT14=
EXTT15=
EXTT16=
EXTT17=
EXTT18=
EXTT19=
EXTT20=
EXTT21=
EXTT22=
PLAYORDER=
